<svg width="118" height="39" viewBox="0 0 118 39" fill="none" xmlns="http://www.w3.org/2000/svg">
  <g clip-path="url(#clip0_1_175)">
    <mask id="mask0_1_175" style="mask-type:luminance" maskUnits="userSpaceOnUse" x="0" y="0" width="118" height="39">
      <path d="M118 0H0V38.5878H118V0Z" fill="white"/>
    </mask>
    <g mask="url(#mask0_1_175)">
      <path d="M5.24926 31.3351V6.26184H0V31.3351H5.24926Z" fill="#212529"/>
      <path d="M20.1988 11.2432C16.7109 11.2432 14.9496 12.4271 13.7088 14.2162H13.4659V11.2432H8.21661V31.3351H13.4659V21.6619C13.4659 18.9432 14.1253 15.9351 18.6804 15.9351C23.6868 15.9351 23.3744 19.7325 23.3744 21.3111V31.3439H28.589V21.3111C28.589 18.3731 28.3807 11.2432 20.1988 11.2432Z" fill="#212529"/>
      <path d="M38.1938 15.9H44.4756V11.3133H38.1938V5.50757H32.9098V11.3133H30.3503V15.9H32.9098V23.9596C32.9098 26.8624 32.9098 31.3351 38.1938 31.3351C43.4778 31.3351 44.4756 30.9755 44.4756 30.9755V25.6785C39.4345 25.9679 38.1938 26.3625 38.1938 23.4597V15.9Z" fill="#212529"/>
      <path d="M66.6353 22.5652H66.8435C67.1212 19.8114 66.7741 15.5843 63.0432 12.927V12.9621C61.4207 11.7781 59.2082 11.0677 56.4838 11.0677C49.9591 11.0677 46.0894 14.6459 46.0894 21.2058C46.0894 27.7657 49.855 31.3439 56.4838 31.3439C63.1127 31.3439 66.2275 28.6954 66.7394 24.363H61.6637C61.1778 25.6873 59.6247 26.5818 56.4838 26.5818C53.1 26.5818 51.5469 25.2575 51.1652 22.5739H66.6353V22.5652ZM56.4838 15.8298C60.2147 15.8298 61.1778 17.4786 61.5943 18.9782H51.3734C51.9981 16.9348 53.5859 15.8298 56.4838 15.8298Z" fill="#212529"/>
      <path d="M73.6632 31.3351V5.58655H68.4487V31.3439H73.6632V31.3351Z" fill="#212529"/>
      <path d="M86.114 19.1625L85.6628 19.1274C82.279 18.5924 81.689 18.0925 81.689 17.1892C81.689 16.5841 82.3137 15.4703 85.2463 15.4703C88.179 15.4703 89.6019 16.3298 89.6019 17.9083V18.0837H94.9553V17.9083C94.9553 14.8301 93.2634 11.1379 85.255 11.1379C77.7933 11.1379 76.2402 14.4705 76.2402 17.2594C76.2402 21.2672 79.6934 22.5564 85.255 23.3106C85.5327 23.3457 85.8103 23.3808 86.088 23.4159C88.1963 23.6702 90.0618 23.9508 90.0618 25.4593C90.0618 26.7835 88.0575 27.073 85.9491 27.073C82.4612 27.073 81.2205 26.2837 81.2205 24.5647V24.3893H75.8324V24.784C75.7977 25.8188 75.7977 27.5027 77.1425 28.9059C78.6956 30.5195 81.6977 31.3439 86.088 31.3439C92.0313 31.3439 95.4846 30.3792 95.4846 25.3979C95.4846 20.4166 90.513 19.8465 86.1227 19.1625H86.114Z" fill="#212529"/>
      <path d="M112.386 11.2782L106.79 26.3976L101.159 11.2782H95.6321L103.094 31.3702H104.959L102.131 39H107.692L117.948 11.2782H112.386Z" fill="#212529"/>
      <path d="M112.438 11.1906L106.842 26.31L105.011 31.2913L102.183 38.9212H107.744L118 11.1993H112.438V11.1906Z" fill="#8942FE"/>
      <path d="M108.681 31.2825L101.211 11.1906H95.6841L103.146 31.2825H108.681Z" fill="#212529"/>
    </g>
  </g>
  <defs>
    <clipPath id="clip0_1_175">
      <rect width="118" height="39" fill="white"/>
    </clipPath>
  </defs>
</svg>
